<svg width="25" height="25" viewBox="0 0 25 25" fill="none" xmlns="http://www.w3.org/2000/svg">
<path d="M21.33 8.51002L14.78 3.27002C13.5 2.25002 11.5 2.24002 10.23 3.26002L3.68002 8.51002C2.74002 9.26002 2.17002 10.76 2.37002 11.94L3.63002 19.48C3.92002 21.17 5.49002 22.5 7.20002 22.5H17.8C19.49 22.5 21.09 21.14 21.38 19.47L22.64 11.93C22.82 10.76 22.25 9.26002 21.33 8.51002ZM13.25 18.5C13.25 18.91 12.91 19.25 12.5 19.25C12.09 19.25 11.75 18.91 11.75 18.5V15.5C11.75 15.09 12.09 14.75 12.5 14.75C12.91 14.75 13.25 15.09 13.25 15.5V18.5Z" fill="#ED610B"/>
</svg>
