<svg width="25" height="25" viewBox="0 0 25 25" fill="none" xmlns="http://www.w3.org/2000/svg">
<path d="M12.52 21.0299C10.19 21.0299 7.85999 20.6599 5.64999 19.9199C4.80999 19.6299 4.16999 19.0399 3.88999 18.2699C3.59999 17.4999 3.69999 16.6499 4.15999 15.8899L5.30999 13.9799C5.54999 13.5799 5.76999 12.7799 5.76999 12.3099V9.41992C5.76999 5.69992 8.79999 2.66992 12.52 2.66992C16.24 2.66992 19.27 5.69992 19.27 9.41992V12.3099C19.27 12.7699 19.49 13.5799 19.73 13.9899L20.87 15.8899C21.3 16.6099 21.38 17.4799 21.09 18.2699C20.8 19.0599 20.17 19.6599 19.38 19.9199C17.18 20.6599 14.85 21.0299 12.52 21.0299ZM12.52 4.16992C9.62999 4.16992 7.26999 6.51992 7.26999 9.41992V12.3099C7.26999 13.0399 6.96999 14.1199 6.59999 14.7499L5.44999 16.6599C5.22999 17.0299 5.16999 17.4199 5.29999 17.7499C5.41999 18.0899 5.71999 18.3499 6.12999 18.4899C10.31 19.8899 14.74 19.8899 18.92 18.4899C19.28 18.3699 19.56 18.0999 19.69 17.7399C19.82 17.3799 19.79 16.9899 19.59 16.6599L18.44 14.7499C18.06 14.0999 17.77 13.0299 17.77 12.2999V9.41992C17.77 6.51992 15.42 4.16992 12.52 4.16992Z" fill="#816E63"/>
<path d="M14.38 4.43993C14.31 4.43993 14.24 4.42993 14.17 4.40993C13.88 4.32993 13.6 4.26993 13.33 4.22993C12.48 4.11993 11.66 4.17993 10.89 4.40993C10.61 4.49993 10.31 4.40993 10.12 4.19993C9.92999 3.98993 9.86999 3.68993 9.97999 3.41993C10.39 2.36993 11.39 1.67993 12.53 1.67993C13.67 1.67993 14.67 2.35993 15.08 3.41993C15.18 3.68993 15.13 3.98993 14.94 4.19993C14.79 4.35993 14.58 4.43993 14.38 4.43993Z" fill="#816E63"/>
<path d="M12.52 23.3101C11.53 23.3101 10.57 22.9101 9.86999 22.2101C9.16999 21.5101 8.76999 20.5501 8.76999 19.5601H10.27C10.27 20.1501 10.51 20.7301 10.93 21.1501C11.35 21.5701 11.93 21.8101 12.52 21.8101C13.76 21.8101 14.77 20.8001 14.77 19.5601H16.27C16.27 21.6301 14.59 23.3101 12.52 23.3101Z" fill="#816E63"/>
</svg>
