<svg width="25" height="25" viewBox="0 0 25 25" fill="none" xmlns="http://www.w3.org/2000/svg">
<path d="M16.3 2.70999C15.89 2.29999 15.18 2.57999 15.18 3.14999V6.63999C15.18 8.09999 16.42 9.30999 17.93 9.30999C18.88 9.31999 20.2 9.31999 21.33 9.31999C21.9 9.31999 22.2 8.64999 21.8 8.24999C20.36 6.79999 17.78 4.18999 16.3 2.70999Z" fill="#ED610B"/>
<path d="M21 10.69H18.11C15.74 10.69 13.81 8.76 13.81 6.39V3.5C13.81 2.95 13.36 2.5 12.81 2.5H8.57C5.49 2.5 3 4.5 3 8.07V16.93C3 20.5 5.49 22.5 8.57 22.5H16.43C19.51 22.5 22 20.5 22 16.93V11.69C22 11.14 21.55 10.69 21 10.69ZM12 18.25H8C7.59 18.25 7.25 17.91 7.25 17.5C7.25 17.09 7.59 16.75 8 16.75H12C12.41 16.75 12.75 17.09 12.75 17.5C12.75 17.91 12.41 18.25 12 18.25ZM14 14.25H8C7.59 14.25 7.25 13.91 7.25 13.5C7.25 13.09 7.59 12.75 8 12.75H14C14.41 12.75 14.75 13.09 14.75 13.5C14.75 13.91 14.41 14.25 14 14.25Z" fill="#ED610B"/>
</svg>
