<svg width="24" height="25" viewBox="0 0 24 25" fill="none" xmlns="http://www.w3.org/2000/svg">
<path d="M8.64 22.25H5.01C3.15 22.25 2.25 21.39 2.25 19.61V5.39C2.25 3.61 3.15 2.75 5.01 2.75H8.64C10.5 2.75 11.4 3.61 11.4 5.39V19.61C11.4 21.39 10.5 22.25 8.64 22.25ZM5.01 4.25C3.93 4.25 3.75 4.52 3.75 5.39V19.61C3.75 20.48 3.92 20.75 5.01 20.75H8.64C9.72 20.75 9.9 20.48 9.9 19.61V5.39C9.9 4.52 9.73 4.25 8.64 4.25H5.01Z" fill="white"/>
<path d="M18.99 22.25H15.36C13.5 22.25 12.6 21.39 12.6 19.61V5.39C12.6 3.61 13.5 2.75 15.36 2.75H18.99C20.85 2.75 21.75 3.61 21.75 5.39V19.61C21.75 21.39 20.85 22.25 18.99 22.25ZM15.36 4.25C14.28 4.25 14.1 4.52 14.1 5.39V19.61C14.1 20.48 14.27 20.75 15.36 20.75H18.99C20.07 20.75 20.25 20.48 20.25 19.61V5.39C20.25 4.52 20.08 4.25 18.99 4.25H15.36Z" fill="white"/>
</svg>
