<svg width="24" height="25" viewBox="0 0 24 25" fill="none" xmlns="http://www.w3.org/2000/svg">
<path d="M7.87 21.78C7.08 21.78 6.33 21.59 5.67 21.21C4.11 20.31 3.25 18.48 3.25 16.07V8.93999C3.25 6.51999 4.11 4.69999 5.67 3.79999C7.23 2.89999 9.24 3.06999 11.34 4.27999L17.51 7.83999C19.6 9.04999 20.76 10.71 20.76 12.51C20.76 14.31 19.61 15.97 17.51 17.18L11.34 20.74C10.13 21.43 8.95 21.78 7.87 21.78ZM7.87 4.71999C7.33 4.71999 6.85 4.83999 6.42 5.08999C5.34 5.70999 4.75 7.07999 4.75 8.93999V16.06C4.75 17.92 5.34 19.28 6.42 19.91C7.5 20.54 8.98 20.36 10.59 19.43L16.76 15.87C18.37 14.94 19.26 13.75 19.26 12.5C19.26 11.25 18.37 10.06 16.76 9.12999L10.59 5.56999C9.61 5.00999 8.69 4.71999 7.87 4.71999Z" fill="#E4D5CE"/>
</svg>
